<svg id="visual" viewBox="0 0 900 600" width="900" height="600" xmlns="http://www.w3.org/2000/svg" xmlns:xlink="http://www.w3.org/1999/xlink" version="1.1"><rect x="0" y="0" width="900" height="600" fill="#161414"></rect><path d="M0 447L25 434.5C50 422 100 397 150 383.8C200 370.7 250 369.3 300 380.8C350 392.3 400 416.7 450 427.5C500 438.3 550 435.7 600 437.7C650 439.7 700 446.3 750 449.3C800 452.3 850 451.7 875 451.3L900 451L900 601L875 601C850 601 800 601 750 601C700 601 650 601 600 601C550 601 500 601 450 601C400 601 350 601 300 601C250 601 200 601 150 601C100 601 50 601 25 601L0 601Z" fill="#702929"></path><path d="M0 488L25 476.5C50 465 100 442 150 436.7C200 431.3 250 443.7 300 452.8C350 462 400 468 450 468.2C500 468.3 550 462.7 600 463.2C650 463.7 700 470.3 750 473C800 475.7 850 474.3 875 473.7L900 473L900 601L875 601C850 601 800 601 750 601C700 601 650 601 600 601C550 601 500 601 450 601C400 601 350 601 300 601C250 601 200 601 150 601C100 601 50 601 25 601L0 601Z" fill="#8a3232"></path><path d="M0 519L25 506C50 493 100 467 150 461.3C200 455.7 250 470.3 300 474.5C350 478.7 400 472.3 450 466.3C500 460.3 550 454.7 600 454.5C650 454.3 700 459.7 750 464.3C800 469 850 473 875 475L900 477L900 601L875 601C850 601 800 601 750 601C700 601 650 601 600 601C550 601 500 601 450 601C400 601 350 601 300 601C250 601 200 601 150 601C100 601 50 601 25 601L0 601Z" fill="#9a3838"></path><path d="M0 516L25 516.7C50 517.3 100 518.7 150 518.3C200 518 250 516 300 513C350 510 400 506 450 508.7C500 511.3 550 520.7 600 519C650 517.3 700 504.7 750 501.7C800 498.7 850 505.3 875 508.7L900 512L900 601L875 601C850 601 800 601 750 601C700 601 650 601 600 601C550 601 500 601 450 601C400 601 350 601 300 601C250 601 200 601 150 601C100 601 50 601 25 601L0 601Z" fill="#8a3232"></path><path d="M0 548L25 550.5C50 553 100 558 150 562C200 566 250 569 300 569.3C350 569.7 400 567.3 450 566.7C500 566 550 567 600 561.2C650 555.3 700 542.7 750 543C800 543.3 850 556.7 875 563.3L900 570L900 601L875 601C850 601 800 601 750 601C700 601 650 601 600 601C550 601 500 601 450 601C400 601 350 601 300 601C250 601 200 601 150 601C100 601 50 601 25 601L0 601Z" fill="#702929"></path></svg>