<svg id="visual" viewBox="0 0 900 600" width="900" height="600" xmlns="http://www.w3.org/2000/svg" xmlns:xlink="http://www.w3.org/1999/xlink" version="1.1"><rect x="0" y="0" width="900" height="600" fill="#161414"></rect><path d="M0 355L21.5 366.2C43 377.3 86 399.7 128.8 403C171.7 406.3 214.3 390.7 257.2 391.7C300 392.7 343 410.3 385.8 416.8C428.7 423.3 471.3 418.7 514.2 410C557 401.3 600 388.7 642.8 387.7C685.7 386.7 728.3 397.3 771.2 406.8C814 416.3 857 424.7 878.5 428.8L900 433L900 601L878.5 601C857 601 814 601 771.2 601C728.3 601 685.7 601 642.8 601C600 601 557 601 514.2 601C471.3 601 428.7 601 385.8 601C343 601 300 601 257.2 601C214.3 601 171.7 601 128.8 601C86 601 43 601 21.5 601L0 601Z" fill="#206f91"></path><path d="M0 399L21.5 399.8C43 400.7 86 402.3 128.8 411.5C171.7 420.7 214.3 437.3 257.2 439.3C300 441.3 343 428.7 385.8 423.5C428.7 418.3 471.3 420.7 514.2 419.2C557 417.7 600 412.3 642.8 413.7C685.7 415 728.3 423 771.2 432.3C814 441.7 857 452.3 878.5 457.7L900 463L900 601L878.5 601C857 601 814 601 771.2 601C728.3 601 685.7 601 642.8 601C600 601 557 601 514.2 601C471.3 601 428.7 601 385.8 601C343 601 300 601 257.2 601C214.3 601 171.7 601 128.8 601C86 601 43 601 21.5 601L0 601Z" fill="#1c6483"></path><path d="M0 511L21.5 511C43 511 86 511 128.8 505.8C171.7 500.7 214.3 490.3 257.2 486.5C300 482.7 343 485.3 385.8 487C428.7 488.7 471.3 489.3 514.2 491C557 492.7 600 495.3 642.8 487.2C685.7 479 728.3 460 771.2 456.5C814 453 857 465 878.5 471L900 477L900 601L878.5 601C857 601 814 601 771.2 601C728.3 601 685.7 601 642.8 601C600 601 557 601 514.2 601C471.3 601 428.7 601 385.8 601C343 601 300 601 257.2 601C214.3 601 171.7 601 128.8 601C86 601 43 601 21.5 601L0 601Z" fill="#195975"></path><path d="M0 511L21.5 508.5C43 506 86 501 128.8 505C171.7 509 214.3 522 257.2 524C300 526 343 517 385.8 516C428.7 515 471.3 522 514.2 519.7C557 517.3 600 505.7 642.8 502.8C685.7 500 728.3 506 771.2 503.8C814 501.7 857 491.3 878.5 486.2L900 481L900 601L878.5 601C857 601 814 601 771.2 601C728.3 601 685.7 601 642.8 601C600 601 557 601 514.2 601C471.3 601 428.7 601 385.8 601C343 601 300 601 257.2 601C214.3 601 171.7 601 128.8 601C86 601 43 601 21.5 601L0 601Z" fill="#154e67"></path><path d="M0 556L21.5 558.7C43 561.3 86 566.7 128.8 565.2C171.7 563.7 214.3 555.3 257.2 554.7C300 554 343 561 385.8 564C428.7 567 471.3 566 514.2 559.2C557 552.3 600 539.7 642.8 533.2C685.7 526.7 728.3 526.3 771.2 532.7C814 539 857 552 878.5 558.5L900 565L900 601L878.5 601C857 601 814 601 771.2 601C728.3 601 685.7 601 642.8 601C600 601 557 601 514.2 601C471.3 601 428.7 601 385.8 601C343 601 300 601 257.2 601C214.3 601 171.7 601 128.8 601C86 601 43 601 21.5 601L0 601Z" fill="#12445a"></path></svg>