<svg xmlns="http://www.w3.org/2000/svg" version="1.1" xmlns:xlink="http://www.w3.org/1999/xlink" xmlns:svgjs="http://svgjs.com/svgjs" width="1440" height="560" preserveAspectRatio="none" viewBox="0 0 1440 560"><g mask="url(&quot;#SvgjsMask1030&quot;)" fill="none"><rect width="1440" height="560" x="0" y="0" fill="url(#SvgjsLinearGradient1031)"></rect><path d="M551 544L320 313" stroke-width="8" stroke="url(#SvgjsLinearGradient1032)" stroke-linecap="round" class="BottomRight"></path><path d="M121 241L462 582" stroke-width="6" stroke="url(#SvgjsLinearGradient1033)" stroke-linecap="round" class="BottomRight"></path><path d="M1343 9L1053 -281" stroke-width="6" stroke="url(#SvgjsLinearGradient1034)" stroke-linecap="round" class="TopLeft"></path><path d="M1407 525L1209 327" stroke-width="10" stroke="url(#SvgjsLinearGradient1034)" stroke-linecap="round" class="TopLeft"></path><path d="M797 344L1144 691" stroke-width="8" stroke="url(#SvgjsLinearGradient1034)" stroke-linecap="round" class="TopLeft"></path><path d="M369 354L510 495" stroke-width="8" stroke="url(#SvgjsLinearGradient1034)" stroke-linecap="round" class="TopLeft"></path><path d="M82 79L334 331" stroke-width="8" stroke="url(#SvgjsLinearGradient1032)" stroke-linecap="round" class="BottomRight"></path><path d="M212 233L496 517" stroke-width="10" stroke="url(#SvgjsLinearGradient1032)" stroke-linecap="round" class="BottomRight"></path><path d="M339 39L10 -290" stroke-width="10" stroke="url(#SvgjsLinearGradient1033)" stroke-linecap="round" class="BottomRight"></path><path d="M306 254L68 16" stroke-width="8" stroke="url(#SvgjsLinearGradient1032)" stroke-linecap="round" class="BottomRight"></path><path d="M1299 99L1699 499" stroke-width="10" stroke="url(#SvgjsLinearGradient1034)" stroke-linecap="round" class="TopLeft"></path><path d="M670 293L1018 641" stroke-width="10" stroke="url(#SvgjsLinearGradient1032)" stroke-linecap="round" class="BottomRight"></path><path d="M1030 240L651 -139" stroke-width="8" stroke="url(#SvgjsLinearGradient1035)" stroke-linecap="round" class="TopLeft"></path><path d="M1048 159L888 -1" stroke-width="6" stroke="url(#SvgjsLinearGradient1032)" stroke-linecap="round" class="BottomRight"></path><path d="M336 93L-45 -288" stroke-width="6" stroke="url(#SvgjsLinearGradient1032)" stroke-linecap="round" class="BottomRight"></path><path d="M172 355L-99 84" stroke-width="8" stroke="url(#SvgjsLinearGradient1034)" stroke-linecap="round" class="TopLeft"></path><path d="M1117 190L774 -153" stroke-width="6" stroke="url(#SvgjsLinearGradient1033)" stroke-linecap="round" class="BottomRight"></path><path d="M179 23L543 387" stroke-width="6" stroke="url(#SvgjsLinearGradient1033)" stroke-linecap="round" class="BottomRight"></path><path d="M336 380L-34 10" stroke-width="6" stroke="url(#SvgjsLinearGradient1032)" stroke-linecap="round" class="BottomRight"></path><path d="M1324 262L1542 480" stroke-width="10" stroke="url(#SvgjsLinearGradient1032)" stroke-linecap="round" class="BottomRight"></path><path d="M196 311L583 698" stroke-width="6" stroke="url(#SvgjsLinearGradient1034)" stroke-linecap="round" class="TopLeft"></path><path d="M1054 48L812 -194" stroke-width="6" stroke="url(#SvgjsLinearGradient1032)" stroke-linecap="round" class="BottomRight"></path><path d="M680 319L347 -14" stroke-width="6" stroke="url(#SvgjsLinearGradient1032)" stroke-linecap="round" class="BottomRight"></path><path d="M1125 476L840 191" stroke-width="6" stroke="url(#SvgjsLinearGradient1035)" stroke-linecap="round" class="TopLeft"></path><path d="M186 7L-70 -249" stroke-width="6" stroke="url(#SvgjsLinearGradient1035)" stroke-linecap="round" class="TopLeft"></path><path d="M46 345L199 498" stroke-width="6" stroke="url(#SvgjsLinearGradient1032)" stroke-linecap="round" class="BottomRight"></path><path d="M232 510L466 744" stroke-width="8" stroke="url(#SvgjsLinearGradient1034)" stroke-linecap="round" class="TopLeft"></path><path d="M727 395L985 653" stroke-width="6" stroke="url(#SvgjsLinearGradient1035)" stroke-linecap="round" class="TopLeft"></path><path d="M28 485L-242 215" stroke-width="10" stroke="url(#SvgjsLinearGradient1035)" stroke-linecap="round" class="TopLeft"></path><path d="M853 291L1179 617" stroke-width="10" stroke="url(#SvgjsLinearGradient1033)" stroke-linecap="round" class="BottomRight"></path><path d="M1254 151L1073 -30" stroke-width="10" stroke="url(#SvgjsLinearGradient1034)" stroke-linecap="round" class="TopLeft"></path><path d="M1113 550L782 219" stroke-width="10" stroke="url(#SvgjsLinearGradient1034)" stroke-linecap="round" class="TopLeft"></path><path d="M1067 292L812 37" stroke-width="6" stroke="url(#SvgjsLinearGradient1035)" stroke-linecap="round" class="TopLeft"></path><path d="M369 124L784 539" stroke-width="10" stroke="url(#SvgjsLinearGradient1034)" stroke-linecap="round" class="TopLeft"></path><path d="M192 173L419 400" stroke-width="6" stroke="url(#SvgjsLinearGradient1034)" stroke-linecap="round" class="TopLeft"></path><path d="M847 352L443 -52" stroke-width="8" stroke="url(#SvgjsLinearGradient1033)" stroke-linecap="round" class="BottomRight"></path><path d="M1218 527L1363 672" stroke-width="10" stroke="url(#SvgjsLinearGradient1032)" stroke-linecap="round" class="BottomRight"></path><path d="M309 145L43 -121" stroke-width="8" stroke="url(#SvgjsLinearGradient1032)" stroke-linecap="round" class="BottomRight"></path><path d="M934 262L1307 635" stroke-width="10" stroke="url(#SvgjsLinearGradient1033)" stroke-linecap="round" class="BottomRight"></path></g><defs><mask id="SvgjsMask1030"><rect width="1440" height="560" fill="#ffffff"></rect></mask><linearGradient x1="84.72%" y1="-39.29%" x2="15.28%" y2="139.29%" gradientUnits="userSpaceOnUse" id="SvgjsLinearGradient1031"><stop stop-color="rgba(0, 0, 0, 1)" offset="0.48"></stop><stop stop-color="rgba(184, 51, 51, 1)" offset="0.57"></stop></linearGradient><linearGradient x1="0%" y1="0%" x2="100%" y2="100%" id="SvgjsLinearGradient1032"><stop stop-color="rgba(0, 0, 0, 0)" offset="0"></stop><stop stop-color="rgba(0, 0, 0, 1)" offset="1"></stop></linearGradient><linearGradient x1="0%" y1="0%" x2="100%" y2="100%" id="SvgjsLinearGradient1033"><stop stop-color="rgba(173, 51, 51, 0)" offset="0"></stop><stop stop-color="rgba(173, 51, 51, 1)" offset="1"></stop></linearGradient><linearGradient x1="100%" y1="100%" x2="0%" y2="0%" id="SvgjsLinearGradient1034"><stop stop-color="rgba(173, 51, 51, 0)" offset="0"></stop><stop stop-color="rgba(173, 51, 51, 1)" offset="1"></stop></linearGradient><linearGradient x1="100%" y1="100%" x2="0%" y2="0%" id="SvgjsLinearGradient1035"><stop stop-color="rgba(0, 0, 0, 0)" offset="0"></stop><stop stop-color="rgba(0, 0, 0, 1)" offset="1"></stop></linearGradient></defs></svg>