<svg xmlns="http://www.w3.org/2000/svg" version="1.1" xmlns:xlink="http://www.w3.org/1999/xlink" xmlns:svgjs="http://svgjs.com/svgjs" width="414" height="896" preserveAspectRatio="none" viewBox="0 0 414 896"><g mask="url(&quot;#SvgjsMask1482&quot;)" fill="none"><rect width="414" height="896" x="0" y="0" fill="url(#SvgjsLinearGradient1483)"></rect><path d="M85 889L319 1123" stroke-width="6" stroke="url(#SvgjsLinearGradient1484)" stroke-linecap="round" class="BottomRight"></path><path d="M207 66L-7 -148" stroke-width="6" stroke="url(#SvgjsLinearGradient1485)" stroke-linecap="round" class="TopLeft"></path><path d="M1 218L-236 -19" stroke-width="6" stroke="url(#SvgjsLinearGradient1486)" stroke-linecap="round" class="BottomRight"></path><path d="M274 62L143 -69" stroke-width="8" stroke="url(#SvgjsLinearGradient1484)" stroke-linecap="round" class="BottomRight"></path><path d="M272 862L420 1010" stroke-width="8" stroke="url(#SvgjsLinearGradient1487)" stroke-linecap="round" class="TopLeft"></path><path d="M276 284L482 490" stroke-width="10" stroke="url(#SvgjsLinearGradient1484)" stroke-linecap="round" class="BottomRight"></path><path d="M94 357L301 564" stroke-width="6" stroke="url(#SvgjsLinearGradient1485)" stroke-linecap="round" class="TopLeft"></path><path d="M388 95L92 -201" stroke-width="8" stroke="url(#SvgjsLinearGradient1484)" stroke-linecap="round" class="BottomRight"></path><path d="M195 851L-28 628" stroke-width="10" stroke="url(#SvgjsLinearGradient1485)" stroke-linecap="round" class="TopLeft"></path><path d="M55 451L-161 235" stroke-width="8" stroke="url(#SvgjsLinearGradient1486)" stroke-linecap="round" class="BottomRight"></path><path d="M187 567L49 429" stroke-width="10" stroke="url(#SvgjsLinearGradient1487)" stroke-linecap="round" class="TopLeft"></path><path d="M181 454L335 608" stroke-width="6" stroke="url(#SvgjsLinearGradient1485)" stroke-linecap="round" class="TopLeft"></path><path d="M222 757L-44 491" stroke-width="10" stroke="url(#SvgjsLinearGradient1485)" stroke-linecap="round" class="TopLeft"></path><path d="M195 349L333 487" stroke-width="8" stroke="url(#SvgjsLinearGradient1485)" stroke-linecap="round" class="TopLeft"></path><path d="M299 200L154 55" stroke-width="8" stroke="url(#SvgjsLinearGradient1485)" stroke-linecap="round" class="TopLeft"></path><path d="M389 440L257 308" stroke-width="8" stroke="url(#SvgjsLinearGradient1486)" stroke-linecap="round" class="BottomRight"></path><path d="M76 256L271 451" stroke-width="6" stroke="url(#SvgjsLinearGradient1484)" stroke-linecap="round" class="BottomRight"></path><path d="M133 772L272 911" stroke-width="8" stroke="url(#SvgjsLinearGradient1486)" stroke-linecap="round" class="BottomRight"></path><path d="M127 133L259 265" stroke-width="10" stroke="url(#SvgjsLinearGradient1487)" stroke-linecap="round" class="TopLeft"></path><path d="M143 727L273 857" stroke-width="6" stroke="url(#SvgjsLinearGradient1486)" stroke-linecap="round" class="BottomRight"></path><path d="M62 405L236 579" stroke-width="8" stroke="url(#SvgjsLinearGradient1486)" stroke-linecap="round" class="BottomRight"></path><path d="M195 632L-33 404" stroke-width="10" stroke="url(#SvgjsLinearGradient1486)" stroke-linecap="round" class="BottomRight"></path><path d="M367 114L585 332" stroke-width="6" stroke="url(#SvgjsLinearGradient1484)" stroke-linecap="round" class="BottomRight"></path><path d="M107 126L371 390" stroke-width="10" stroke="url(#SvgjsLinearGradient1486)" stroke-linecap="round" class="BottomRight"></path><path d="M338 893L620 1175" stroke-width="8" stroke="url(#SvgjsLinearGradient1487)" stroke-linecap="round" class="TopLeft"></path></g><defs><mask id="SvgjsMask1482"><rect width="414" height="896" fill="#ffffff"></rect></mask><linearGradient x1="129.11%" y1="13.45%" x2="-29.11%" y2="86.55%" gradientUnits="userSpaceOnUse" id="SvgjsLinearGradient1483"><stop stop-color="rgba(0, 0, 0, 0.92)" offset="0.47"></stop><stop stop-color="rgba(191, 24, 24, 1)" offset="0.61"></stop></linearGradient><linearGradient x1="0%" y1="0%" x2="100%" y2="100%" id="SvgjsLinearGradient1484"><stop stop-color="rgba(255, 12, 12, 0)" offset="0"></stop><stop stop-color="rgba(255, 12, 12, 1)" offset="1"></stop></linearGradient><linearGradient x1="100%" y1="100%" x2="0%" y2="0%" id="SvgjsLinearGradient1485"><stop stop-color="rgba(255, 12, 12, 0)" offset="0"></stop><stop stop-color="rgba(255, 12, 12, 1)" offset="1"></stop></linearGradient><linearGradient x1="0%" y1="0%" x2="100%" y2="100%" id="SvgjsLinearGradient1486"><stop stop-color="rgba(0, 0, 0, 0)" offset="0"></stop><stop stop-color="rgba(0, 0, 0, 1)" offset="1"></stop></linearGradient><linearGradient x1="100%" y1="100%" x2="0%" y2="0%" id="SvgjsLinearGradient1487"><stop stop-color="rgba(0, 0, 0, 0)" offset="0"></stop><stop stop-color="rgba(0, 0, 0, 1)" offset="1"></stop></linearGradient></defs></svg>