<svg xmlns="http://www.w3.org/2000/svg" version="1.1" xmlns:xlink="http://www.w3.org/1999/xlink" xmlns:svgjs="http://svgjs.com/svgjs" width="414" height="896" preserveAspectRatio="none" viewBox="0 0 414 896"><g mask="url(&quot;#SvgjsMask1498&quot;)" fill="none"><rect width="414" height="896" x="0" y="0" fill="url(#SvgjsLinearGradient1499)"></rect><path d="M242 654L49 461" stroke-width="6" stroke="url(#SvgjsLinearGradient1500)" stroke-linecap="round" class="BottomRight"></path><path d="M159 225L413 479" stroke-width="10" stroke="url(#SvgjsLinearGradient1500)" stroke-linecap="round" class="BottomRight"></path><path d="M74 552L-207 271" stroke-width="8" stroke="url(#SvgjsLinearGradient1501)" stroke-linecap="round" class="BottomRight"></path><path d="M337 250L192 105" stroke-width="8" stroke="url(#SvgjsLinearGradient1502)" stroke-linecap="round" class="TopLeft"></path><path d="M181 94L329 242" stroke-width="8" stroke="url(#SvgjsLinearGradient1503)" stroke-linecap="round" class="TopLeft"></path><path d="M322 451L595 724" stroke-width="10" stroke="url(#SvgjsLinearGradient1503)" stroke-linecap="round" class="TopLeft"></path><path d="M393 194L668 469" stroke-width="6" stroke="url(#SvgjsLinearGradient1503)" stroke-linecap="round" class="TopLeft"></path><path d="M121 463L-27 315" stroke-width="6" stroke="url(#SvgjsLinearGradient1501)" stroke-linecap="round" class="BottomRight"></path><path d="M86 182L-152 -56" stroke-width="6" stroke="url(#SvgjsLinearGradient1502)" stroke-linecap="round" class="TopLeft"></path><path d="M368 646L256 534" stroke-width="8" stroke="url(#SvgjsLinearGradient1501)" stroke-linecap="round" class="BottomRight"></path><path d="M390 883L207 700" stroke-width="6" stroke="url(#SvgjsLinearGradient1502)" stroke-linecap="round" class="TopLeft"></path><path d="M85 593L337 845" stroke-width="8" stroke="url(#SvgjsLinearGradient1501)" stroke-linecap="round" class="BottomRight"></path><path d="M4 560L200 756" stroke-width="8" stroke="url(#SvgjsLinearGradient1501)" stroke-linecap="round" class="BottomRight"></path><path d="M371 609L235 473" stroke-width="8" stroke="url(#SvgjsLinearGradient1500)" stroke-linecap="round" class="BottomRight"></path><path d="M66 837L-53 718" stroke-width="10" stroke="url(#SvgjsLinearGradient1503)" stroke-linecap="round" class="TopLeft"></path><path d="M171 875L347 1051" stroke-width="6" stroke="url(#SvgjsLinearGradient1502)" stroke-linecap="round" class="TopLeft"></path><path d="M401 291L175 65" stroke-width="6" stroke="url(#SvgjsLinearGradient1502)" stroke-linecap="round" class="TopLeft"></path><path d="M135 436L396 697" stroke-width="6" stroke="url(#SvgjsLinearGradient1503)" stroke-linecap="round" class="TopLeft"></path><path d="M76 337L295 556" stroke-width="6" stroke="url(#SvgjsLinearGradient1500)" stroke-linecap="round" class="BottomRight"></path><path d="M339 230L614 505" stroke-width="10" stroke="url(#SvgjsLinearGradient1501)" stroke-linecap="round" class="BottomRight"></path><path d="M336 141L475 280" stroke-width="6" stroke="url(#SvgjsLinearGradient1500)" stroke-linecap="round" class="BottomRight"></path><path d="M38 138L-136 -36" stroke-width="10" stroke="url(#SvgjsLinearGradient1502)" stroke-linecap="round" class="TopLeft"></path><path d="M279 448L35 204" stroke-width="6" stroke="url(#SvgjsLinearGradient1500)" stroke-linecap="round" class="BottomRight"></path><path d="M392 273L216 97" stroke-width="8" stroke="url(#SvgjsLinearGradient1503)" stroke-linecap="round" class="TopLeft"></path><path d="M32 788L-94 662" stroke-width="6" stroke="url(#SvgjsLinearGradient1501)" stroke-linecap="round" class="BottomRight"></path></g><defs><mask id="SvgjsMask1498"><rect width="414" height="896" fill="#ffffff"></rect></mask><linearGradient x1="129.11%" y1="13.45%" x2="-29.11%" y2="86.55%" gradientUnits="userSpaceOnUse" id="SvgjsLinearGradient1499"><stop stop-color="rgba(0, 0, 0, 0.92)" offset="0.47"></stop><stop stop-color="rgba(24, 142, 191, 1)" offset="0.61"></stop></linearGradient><linearGradient x1="0%" y1="0%" x2="100%" y2="100%" id="SvgjsLinearGradient1500"><stop stop-color="rgba(24, 142, 191, 0)" offset="0"></stop><stop stop-color="rgba(24, 142, 191, 1)" offset="1"></stop></linearGradient><linearGradient x1="0%" y1="0%" x2="100%" y2="100%" id="SvgjsLinearGradient1501"><stop stop-color="rgba(0, 0, 0, 0)" offset="0"></stop><stop stop-color="rgba(0, 0, 0, 1)" offset="1"></stop></linearGradient><linearGradient x1="100%" y1="100%" x2="0%" y2="0%" id="SvgjsLinearGradient1502"><stop stop-color="rgba(0, 0, 0, 0)" offset="0"></stop><stop stop-color="rgba(0, 0, 0, 1)" offset="1"></stop></linearGradient><linearGradient x1="100%" y1="100%" x2="0%" y2="0%" id="SvgjsLinearGradient1503"><stop stop-color="rgba(24, 142, 191, 0)" offset="0"></stop><stop stop-color="rgba(24, 142, 191, 1)" offset="1"></stop></linearGradient></defs></svg>